<!-- FiberGiant F-6000: массивный промышленный станок, фиолетовый -->
<svg xmlns="http://www.w3.org/2000/svg" viewBox="0 0 120 90" role="img" aria-label="Станок FiberGiant F-6000">
  <rect x="2" y="14" width="98" height="60" rx="5" fill="#9B7FC4" opacity="0.9"/>
  <rect x="2" y="14" width="98" height="60" rx="5" fill="none" stroke="#6f5693" stroke-width="2"/>
  <rect x="8" y="20" width="86" height="3" rx="1.5" fill="#f2e8d5" opacity="0.5"/>
  <rect x="8" y="26" width="86" height="3" rx="1.5" fill="#f2e8d5" opacity="0.3"/>
  <rect x="8" y="32" width="86" height="3" rx="1.5" fill="#f2e8d5" opacity="0.15"/>
  <circle cx="20" cy="50" r="9" fill="#141a20" stroke="#f2e8d5" stroke-width="1.5"/>
  <circle cx="20" cy="50" r="3" fill="#f2e8d5"/>
  <circle cx="44" cy="50" r="9" fill="#141a20" stroke="#f2e8d5" stroke-width="1.5"/>
  <circle cx="44" cy="50" r="3" fill="#f2e8d5"/>
  <circle cx="68" cy="50" r="9" fill="#141a20" stroke="#f2e8d5" stroke-width="1.5"/>
  <circle cx="68" cy="50" r="3" fill="#f2e8d5"/>
  <circle cx="90" cy="50" r="6" fill="#141a20" stroke="#f2e8d5" stroke-width="1.5"/>
  <circle cx="90" cy="50" r="2" fill="#f2e8d5"/>
  <path d="M102 30 Q122 30 122 50 Q122 70 102 70" fill="none" stroke="#f2e8d5" stroke-width="2.5" stroke-linecap="round"/>
  <rect x="2" y="74" width="98" height="6" rx="2" fill="#6f5693"/>
  <circle cx="108" cy="14" r="3" fill="#e8c547"/>
  <circle cx="108" cy="22" r="3" fill="#8fb88f"/>
</svg>
